<svg width="400" height="85" viewBox="0 0 400 85" fill="none" xmlns="http://www.w3.org/2000/svg">
<path d="M137.537 35.3575H97.6736V1.34009H137.537C143.279 1.34009 147.241 2.13708 149.525 3.63984C151.768 5.11597 152.922 7.46831 152.922 10.8126V11.0584C152.922 12.804 152.536 14.2187 151.795 15.3337C151.055 16.4467 149.936 17.3015 148.399 17.8835L147.131 18.3638L148.407 18.8218C149.94 19.3717 151.057 20.202 151.795 21.2969C152.534 22.394 152.922 23.7989 152.922 25.5446V25.7904C152.922 29.1688 151.763 31.5443 149.501 33.0342C147.197 34.5516 143.244 35.3575 137.537 35.3575ZM107.065 14.4803V14.9803H107.565H137.489C139.17 14.9803 140.472 14.771 141.297 14.2635C142.161 13.7327 142.583 12.9 142.583 11.8524V11.7012C142.583 10.6275 142.166 9.78261 141.291 9.26268L141.289 9.26141C140.462 8.77576 139.073 8.57335 137.237 8.57335H107.565H107.065V9.07335V14.4803ZM107.065 27.6242V28.1242H107.565H137.237C139.073 28.1242 140.467 27.9176 141.297 27.4074C142.173 26.8692 142.583 25.9948 142.583 24.8971V24.7506C142.583 23.7081 142.171 22.8705 141.334 22.3238C140.521 21.788 139.194 21.5708 137.489 21.5708H107.565H107.065V22.0708V27.6242Z" stroke="white"/>
<path d="M180.995 35.3606C173.684 35.3606 168.386 33.9211 165.003 31.1358C161.634 28.3614 159.916 24.2291 159.916 18.652V18.255C159.916 12.5599 161.675 8.36983 165.124 5.58768C168.594 2.78894 173.856 1.3479 180.995 1.3479H198.427C205.566 1.3479 210.827 2.79008 214.297 5.58942C217.747 8.3722 219.506 12.5623 219.506 18.255V18.652C219.506 24.2291 217.788 28.3614 214.418 31.1358C211.035 33.9211 205.737 35.3606 198.427 35.3606H180.995ZM180.695 27.4325H198.779C202.674 27.4325 205.603 26.7459 207.433 25.261C209.283 23.7692 210.166 21.511 210.166 18.6V18.203C210.166 15.2254 209.286 12.9367 207.433 11.4427C205.599 9.96308 202.676 9.27594 198.779 9.27594H180.695C176.762 9.27594 173.827 9.96225 172.01 11.4444C170.178 12.9387 169.303 15.2314 169.303 18.203V18.6C169.303 21.5464 170.185 23.8119 172.038 25.291C173.872 26.7552 176.795 27.4325 180.69 27.4325H180.695Z" stroke="white"/>
<path d="M247.582 35.3606C240.272 35.3606 234.974 33.9211 231.591 31.1358C228.221 28.3614 226.503 24.2291 226.503 18.652V18.255C226.503 12.5599 228.263 8.36983 231.712 5.58768C235.182 2.78894 240.443 1.3479 247.582 1.3479H265.015C272.153 1.3479 277.415 2.79008 280.885 5.58942C284.334 8.3722 286.093 12.5623 286.093 18.255V18.652C286.093 24.2291 284.376 28.3614 281.006 31.1358C277.623 33.9211 272.325 35.3606 265.015 35.3606H247.582ZM247.282 27.4325H265.367C269.262 27.4325 272.191 26.7459 274.021 25.261C275.871 23.7692 276.754 21.511 276.754 18.6V18.203C276.754 15.2254 275.873 12.9367 274.021 11.4427C272.186 9.96308 269.263 9.27594 265.367 9.27594H247.282C243.35 9.27594 240.415 9.96225 238.598 11.4444C236.766 12.9387 235.891 15.2314 235.891 18.203V18.6C235.891 21.5464 236.772 23.8119 238.625 25.291C240.46 26.7552 243.382 27.4325 247.278 27.4325H247.282Z" stroke="white"/>
<path d="M327.387 21.7961L359.432 0.922414V35.3587H350.092V17.3598V16.4327L349.317 16.942L327.114 31.5406L304.91 16.942L304.135 16.4327V17.3598V35.3587H294.743V0.921612L326.841 21.7963L327.114 21.9738L327.387 21.7961Z" stroke="white"/>
<path d="M126.998 58.4827V84.072H117.606V58.4827V57.9827H117.106H95.5271V50.0547H149.029V57.9827H127.498H126.998V58.4827Z" stroke="white"/>
<path d="M175.101 84.0732C167.791 84.0732 162.493 82.6337 159.11 79.8484C155.74 77.074 154.022 72.9417 154.022 67.3646V66.9676C154.022 61.2725 155.782 57.0825 159.231 54.3003C162.701 51.5016 167.962 50.0605 175.101 50.0605H192.534C199.672 50.0605 204.934 51.5027 208.404 54.302C211.853 57.0848 213.612 61.275 213.612 66.9676V67.3646C213.612 72.9417 211.895 77.074 208.525 79.8484C205.142 82.6337 199.844 84.0732 192.534 84.0732H175.101ZM174.801 76.1452H192.886C196.781 76.1452 199.71 75.4585 201.54 73.9737C203.39 72.4818 204.273 70.2237 204.273 67.3126V66.9156C204.273 63.9381 203.392 61.6493 201.54 60.1553C199.705 58.6757 196.782 57.9886 192.886 57.9886H174.801C170.869 57.9886 167.934 58.6749 166.117 60.1571C164.285 61.6514 163.41 63.944 163.41 66.9156V67.3126C163.41 70.2591 164.291 72.5245 166.144 74.0036C167.979 75.4678 170.901 76.1452 174.797 76.1452H174.801Z" stroke="white"/>
<path d="M241.689 84.0732C234.379 84.0732 229.081 82.6337 225.698 79.8484C222.328 77.074 220.61 72.9417 220.61 67.3646V66.9676C220.61 61.2725 222.37 57.0825 225.819 54.3003C229.289 51.5016 234.55 50.0605 241.689 50.0605H259.122C266.26 50.0605 271.522 51.5027 274.992 54.302C278.441 57.0848 280.201 61.275 280.201 66.9676V67.3646C280.201 72.9417 278.483 77.074 275.113 79.8484C271.73 82.6337 266.432 84.0732 259.122 84.0732H241.689ZM241.389 76.1452H259.474C263.369 76.1452 266.298 75.4585 268.128 73.9737C269.978 72.4818 270.861 70.2237 270.861 67.3126V66.9156C270.861 63.9381 269.98 61.6493 268.128 60.1553C266.293 58.6757 263.37 57.9886 259.474 57.9886H241.389C237.457 57.9886 234.522 58.6749 232.705 60.1571C230.873 61.6514 229.998 63.944 229.998 66.9156V67.3126C229.998 70.2591 230.879 72.5245 232.732 74.0036C234.567 75.4678 237.489 76.1452 241.385 76.1452H241.389Z" stroke="white"/>
<path d="M298.737 76.144H339.448V84.072H288.845V50.0547H298.237V75.644V76.144H298.737Z" stroke="white"/>
<path d="M387.461 84.072H346.894V76.8388H384.61C386.234 76.8388 387.521 76.6261 388.401 76.132C389.355 75.5966 389.804 74.6816 389.804 73.5124C389.804 72.9393 389.698 72.4296 389.462 71.9921C389.223 71.5507 388.869 71.2155 388.423 70.9676L388.421 70.9664C387.559 70.4923 386.259 70.2853 384.61 70.2853H358.385C354.179 70.2853 351.192 69.3561 349.311 67.5941C347.415 65.8192 346.446 63.3992 346.446 60.2693C346.446 57.1346 347.418 54.6011 349.314 52.795C351.195 51.0019 354.182 50.0547 358.385 50.0547H397.901V57.2879H360.936C359.414 57.2879 358.216 57.4948 357.427 57.9816L357.425 57.9829C356.574 58.5142 356.19 59.4008 356.19 60.515C356.19 61.6068 356.551 62.5533 357.413 63.0544C358.184 63.5095 359.392 63.6949 360.936 63.6949H387.461C391.731 63.6949 394.755 64.6253 396.635 66.3861C398.531 68.161 399.5 70.581 399.5 73.7109C399.5 76.8477 398.526 79.4485 396.629 81.2874C394.749 83.1102 391.728 84.072 387.461 84.072Z" stroke="white"/>
<path d="M17.7163 36.0447H34.1841V52.6172H1.20401L17.7163 36.0447Z" stroke="white"/>
<path d="M79.5028 53.2193L62.78 69.8226V53.2384V52.7384H62.28H35.8973L52.3988 36.355H79.5028V53.2193Z" stroke="white"/>
<path d="M28.3541 84.0694L11.8527 67.6859H62.2799H62.7799V67.1859V49.836L79.5076 47.508V66.7697L62.074 84.0694H28.3541Z" stroke="white"/>
<path d="M69.4015 18.0513L52.6739 34.6549V18.0704V17.5704H52.1739H1.74659L18.248 1.18701H69.4015V18.0513Z" stroke="white"/>
</svg>
