<svg width="48" height="48" viewBox="0 0 48 48" fill="none" xmlns="http://www.w3.org/2000/svg">
<path d="M43.5 13.5C43.5002 14.7467 43.2413 15.9799 42.7398 17.1213C42.2383 18.2626 41.5051 19.2874 40.5867 20.1305C39.6684 20.9737 38.5849 21.6168 37.4049 22.0192C36.2249 22.4216 34.9742 22.5744 33.732 22.468C31.58 22.286 29.204 22.61 27.832 24.276L13.528 41.644C13.0768 42.1941 12.5154 42.6435 11.88 42.9634C11.2446 43.2834 10.5493 43.4668 9.8387 43.5017C9.12815 43.5367 8.41814 43.4225 7.75438 43.1665C7.09062 42.9105 6.48782 42.5184 5.98477 42.0153C5.48172 41.5123 5.08958 40.9095 4.83357 40.2457C4.57757 39.5819 4.46338 38.8719 4.49835 38.1614C4.53332 37.4508 4.71668 36.7555 5.03663 36.12C5.35658 35.4846 5.80603 34.9233 6.35604 34.472L23.724 20.168C25.39 18.796 25.714 16.42 25.532 14.268C25.3978 12.7044 25.6747 11.1328 26.3354 9.70923C26.9961 8.28567 28.0176 7.05961 29.2984 6.15274C30.5793 5.24586 32.075 4.68969 33.6372 4.53941C35.1994 4.38913 36.7738 4.64997 38.204 5.29604L31.652 11.848C31.9055 12.9442 32.4617 13.9472 33.2573 14.7428C34.0529 15.5384 35.0559 16.0946 36.152 16.348L42.704 9.79604C43.216 10.926 43.5 12.18 43.5 13.5Z" fill="#0A090F" stroke="#E4D23A" stroke-width="1.5" stroke-linecap="round" stroke-linejoin="round"/>
<path d="M9.73389 38.25H9.74989V38.266H9.73389V38.25Z" stroke="white" stroke-opacity="0.7" stroke-width="1.5" stroke-linecap="round" stroke-linejoin="round"/>
</svg>
