<svg width="48" height="48" viewBox="0 0 48 48" fill="none" xmlns="http://www.w3.org/2000/svg">
<mask id="path-1-inside-1_17_3577" fill="white">
<path d="M24.0096 4.97561L26.9649 6.84274L27.3696 7.09839L27.8415 7.01759L31.288 6.42791L33.3026 9.28709L33.5791 9.67981L34.0474 9.78552L37.458 10.5557L38.229 13.966L38.3347 14.433L38.7254 14.7096L41.5798 16.7287L40.9812 20.1739L40.8988 20.6474L41.1557 21.0538L43.024 24.0103L41.1569 26.9655L40.9012 27.3703L40.982 27.8422L41.5717 31.2886L38.7126 33.3033L38.3199 33.5798L38.2141 34.0481L37.444 37.4588L34.0337 38.2298L33.5667 38.3355L33.2901 38.7262L31.2711 41.5805L27.8259 40.982L27.3524 40.8996L26.946 41.1565L23.9895 43.0248L21.0343 41.1577L20.6296 40.902L20.1577 40.9828L16.7112 41.5725L14.6966 38.7133L14.4201 38.3206L13.9518 38.2149L10.5411 37.4447L9.77019 34.0344L9.66447 33.5674L9.27377 33.2908L6.41944 31.2717L7.01796 27.8265L7.10036 27.353L6.84351 26.9466L4.9752 23.9902L6.8423 21.0349L7.09795 20.6301L7.01716 20.1582L6.42748 16.7118L9.28663 14.6971L9.67934 14.4206L9.78506 13.9523L10.5552 10.5416L13.9655 9.77065L14.4325 9.66493L14.7091 9.27422L16.7281 6.41987L20.1733 7.0184L20.6468 7.1008L21.0532 6.84394L24.0096 4.97561ZM24 39.8247C26.1356 39.8247 28.2081 39.4063 30.1601 38.5807C32.0444 37.7836 33.7367 36.6428 35.1898 35.1897C36.6429 33.7366 37.7836 32.0447 38.5807 30.1599C39.4064 28.208 39.8248 26.1354 39.8248 23.9998C39.8248 21.8642 39.4064 19.7916 38.5807 17.8397C37.7836 15.9553 36.6429 14.263 35.1898 12.8099C33.7367 11.3568 32.0448 10.216 30.1601 9.41893C28.2081 8.5933 26.1356 8.17485 24 8.17485C21.8644 8.17485 19.7919 8.5933 17.84 9.41893C15.9556 10.216 14.2633 11.3568 12.8102 12.8099C11.3571 14.263 10.2164 15.9549 9.41927 17.8397C8.59365 19.7916 8.17521 21.8642 8.17521 23.9998C8.17521 26.1354 8.59365 28.208 9.41927 30.1599C10.2164 32.0443 11.3571 33.7366 12.8102 35.1897C14.2633 36.6424 15.9552 37.7836 17.84 38.5807C19.7919 39.4063 21.8644 39.8247 24 39.8247ZM24.0096 3.5L20.3872 5.78959L16.1654 5.05601L13.6913 8.5539L9.51253 9.49852L8.56913 13.6777L5.06604 16.1462L5.78836 20.3689L3.5 23.9906L5.78957 27.6131L5.05599 31.8349L8.55385 34.309L9.49846 38.4878L13.6776 39.4312L16.1461 42.9339L20.3687 42.2116L23.9904 44.5L27.6128 42.2104L31.8346 42.944L34.3087 39.4461L38.4875 38.5015L39.4309 34.3223L42.934 31.8538L42.2116 27.6311L44.5 24.0094L42.2104 20.3869L42.944 16.1651L39.4461 13.691L38.5015 9.51219L34.3224 8.56878L31.8539 5.06605L27.6313 5.78839L24.0096 3.5ZM24 38.5775C15.9491 38.5775 9.42289 32.0512 9.42289 24.0002C9.42289 15.9493 15.9491 9.42295 24 9.42295C32.0509 9.42295 38.5771 15.9493 38.5771 24.0002C38.5771 32.0512 32.0509 38.5775 24 38.5775Z"/>
</mask>
<path d="M24.0096 4.97561L26.9649 6.84274L27.3696 7.09839L27.8415 7.01759L31.288 6.42791L33.3026 9.28709L33.5791 9.67981L34.0474 9.78552L37.458 10.5557L38.229 13.966L38.3347 14.433L38.7254 14.7096L41.5798 16.7287L40.9812 20.1739L40.8988 20.6474L41.1557 21.0538L43.024 24.0103L41.1569 26.9655L40.9012 27.3703L40.982 27.8422L41.5717 31.2886L38.7126 33.3033L38.3199 33.5798L38.2141 34.0481L37.444 37.4588L34.0337 38.2298L33.5667 38.3355L33.2901 38.7262L31.2711 41.5805L27.8259 40.982L27.3524 40.8996L26.946 41.1565L23.9895 43.0248L21.0343 41.1577L20.6296 40.902L20.1577 40.9828L16.7112 41.5725L14.6966 38.7133L14.4201 38.3206L13.9518 38.2149L10.5411 37.4447L9.77019 34.0344L9.66447 33.5674L9.27377 33.2908L6.41944 31.2717L7.01796 27.8265L7.10036 27.353L6.84351 26.9466L4.9752 23.9902L6.8423 21.0349L7.09795 20.6301L7.01716 20.1582L6.42748 16.7118L9.28663 14.6971L9.67934 14.4206L9.78506 13.9523L10.5552 10.5416L13.9655 9.77065L14.4325 9.66493L14.7091 9.27422L16.7281 6.41987L20.1733 7.0184L20.6468 7.1008L21.0532 6.84394L24.0096 4.97561ZM24 39.8247C26.1356 39.8247 28.2081 39.4063 30.1601 38.5807C32.0444 37.7836 33.7367 36.6428 35.1898 35.1897C36.6429 33.7366 37.7836 32.0447 38.5807 30.1599C39.4064 28.208 39.8248 26.1354 39.8248 23.9998C39.8248 21.8642 39.4064 19.7916 38.5807 17.8397C37.7836 15.9553 36.6429 14.263 35.1898 12.8099C33.7367 11.3568 32.0448 10.216 30.1601 9.41893C28.2081 8.5933 26.1356 8.17485 24 8.17485C21.8644 8.17485 19.7919 8.5933 17.84 9.41893C15.9556 10.216 14.2633 11.3568 12.8102 12.8099C11.3571 14.263 10.2164 15.9549 9.41927 17.8397C8.59365 19.7916 8.17521 21.8642 8.17521 23.9998C8.17521 26.1354 8.59365 28.208 9.41927 30.1599C10.2164 32.0443 11.3571 33.7366 12.8102 35.1897C14.2633 36.6424 15.9552 37.7836 17.84 38.5807C19.7919 39.4063 21.8644 39.8247 24 39.8247ZM24.0096 3.5L20.3872 5.78959L16.1654 5.05601L13.6913 8.5539L9.51253 9.49852L8.56913 13.6777L5.06604 16.1462L5.78836 20.3689L3.5 23.9906L5.78957 27.6131L5.05599 31.8349L8.55385 34.309L9.49846 38.4878L13.6776 39.4312L16.1461 42.9339L20.3687 42.2116L23.9904 44.5L27.6128 42.2104L31.8346 42.944L34.3087 39.4461L38.4875 38.5015L39.4309 34.3223L42.934 31.8538L42.2116 27.6311L44.5 24.0094L42.2104 20.3869L42.944 16.1651L39.4461 13.691L38.5015 9.51219L34.3224 8.56878L31.8539 5.06605L27.6313 5.78839L24.0096 3.5ZM24 38.5775C15.9491 38.5775 9.42289 32.0512 9.42289 24.0002C9.42289 15.9493 15.9491 9.42295 24 9.42295C32.0509 9.42295 38.5771 15.9493 38.5771 24.0002C38.5771 32.0512 32.0509 38.5775 24 38.5775Z" stroke="#E4D23A" stroke-width="2" stroke-linejoin="round" mask="url(#path-1-inside-1_17_3577)"/>
<path d="M28.1755 18L22.6354 24.9982L20.2787 23.0214L18 25.6157L20.5643 27.7665L23.2268 30L31 20.0177L28.1755 18ZM22.7759 26.3448L23.3903 25.5686L28.3622 19.2883L29.6513 20.2094L23.0804 28.648L21.1858 27.0588L19.3457 25.5154L20.3814 24.3364L22.0139 25.7059L22.7759 26.3448Z" fill="#E4D23A"/>
</svg>
