<svg width="48" height="48" viewBox="0 0 48 48" fill="none" xmlns="http://www.w3.org/2000/svg">
<path d="M22.84 30.34L34.5 42C35.5 42.968 36.8404 43.5042 38.2322 43.4929C39.6239 43.4816 40.9554 42.9237 41.9396 41.9396C42.9237 40.9555 43.4816 39.6239 43.4929 38.2322C43.5042 36.8404 42.968 35.5 42 34.5L30.246 22.746M22.84 30.34L27.832 24.28C28.466 23.512 29.312 23.028 30.248 22.748C31.348 22.42 32.574 22.372 33.734 22.468C35.2977 22.6023 36.8692 22.3253 38.2928 21.6646C39.7164 21.0039 40.9424 19.9825 41.8493 18.7016C42.7562 17.4207 43.3123 15.925 43.4626 14.3628C43.6129 12.8006 43.3521 11.2263 42.706 9.796L36.154 16.35C35.0578 16.0965 34.0548 15.5403 33.2592 14.7448C32.4637 13.9492 31.9075 12.9462 31.654 11.85L38.206 5.298C36.7757 4.65193 35.2014 4.39109 33.6392 4.54137C32.077 4.69165 30.5813 5.24782 29.3004 6.1547C28.0195 7.06157 26.9981 8.28763 26.3374 9.71119C25.6767 11.1348 25.3997 12.7063 25.534 14.27C25.716 16.422 25.392 18.798 23.726 20.17L23.522 20.34M22.84 30.34L13.53 41.646C13.0788 42.196 12.5174 42.6455 11.882 42.9654C11.2466 43.2854 10.5512 43.4687 9.84066 43.5037C9.1301 43.5387 8.42009 43.4245 7.75633 43.1685C7.09258 42.9125 6.48977 42.5203 5.98672 42.0173C5.48368 41.5142 5.09153 40.9114 4.83553 40.2477C4.57952 39.5839 4.46533 38.8739 4.5003 38.1633C4.53527 37.4528 4.71864 36.7574 5.03858 36.122C5.35853 35.4866 5.80798 34.9252 6.35799 34.474L20.032 23.214L11.818 15H8.99999L4.49999 7.5L7.49999 4.5L15 9V11.818L23.52 20.338L20.03 23.212M36.75 36.75L31.5 31.5M9.73399 38.25H9.74999V38.266H9.73399V38.25Z" stroke="#E4D23A" stroke-width="2" stroke-linecap="round" stroke-linejoin="round"/>
</svg>
