<svg width="40" height="40" viewBox="0 0 40 40" fill="none" xmlns="http://www.w3.org/2000/svg">
<path d="M25.8472 33.464C27.5094 33.9318 29.2316 34.1683 30.9624 34.1666C33.7459 34.1705 36.4932 33.5554 38.9928 32.3684C39.0667 30.6754 38.5692 29.0052 37.5757 27.6109C36.5822 26.2167 35.1469 25.1743 33.4873 24.6419C31.8277 24.1095 30.0343 24.1161 28.3788 24.6606C26.7234 25.2051 25.2962 26.2579 24.3136 27.6594M25.8472 33.464V33.4583C25.8472 31.356 25.2899 29.3783 24.3136 27.6594M25.8472 33.464V33.6642C22.097 35.8536 17.8005 37.0071 13.4226 37C8.88034 37 4.63033 35.7816 1.00195 33.6642L1 33.4583C0.998507 30.7845 1.91511 28.1863 3.60531 26.0733C5.29551 23.9602 7.66316 22.4526 10.335 21.788C13.0068 21.1234 15.8308 21.3397 18.3618 22.4028C20.8928 23.4659 22.9868 25.3153 24.3136 27.6594M20.0013 9.37499C20.0013 11.0657 19.3084 12.6873 18.075 13.8828C16.8416 15.0783 15.1688 15.75 13.4246 15.75C11.6803 15.75 10.0075 15.0783 8.77416 13.8828C7.5408 12.6873 6.8479 11.0657 6.8479 9.37499C6.8479 7.68424 7.5408 6.06274 8.77416 4.86719C10.0075 3.67165 11.6803 3 13.4246 3C15.1688 3 16.8416 3.67165 18.075 4.86719C19.3084 6.06274 20.0013 7.68424 20.0013 9.37499ZM36.0776 13.625C36.0776 14.94 35.5387 16.2012 34.5794 17.1311C33.6201 18.0609 32.3191 18.5833 30.9624 18.5833C29.6058 18.5833 28.3047 18.0609 27.3454 17.1311C26.3861 16.2012 25.8472 14.94 25.8472 13.625C25.8472 12.31 26.3861 11.0488 27.3454 10.1189C28.3047 9.18905 29.6058 8.66666 30.9624 8.66666C32.3191 8.66666 33.6201 9.18905 34.5794 10.1189C35.5387 11.0488 36.0776 12.31 36.0776 13.625Z" stroke="#B5B5B7" stroke-width="2" stroke-linecap="round" stroke-linejoin="round"/>
</svg>
