<svg width="40" height="40" viewBox="0 0 40 40" fill="none" xmlns="http://www.w3.org/2000/svg">
<path d="M16.872 5.22333C17.042 4.22967 17.9298 3.5 18.9687 3.5H21.0332C22.0721 3.5 22.9599 4.22967 23.1299 5.22333L23.4113 6.86233C23.5436 7.63967 24.1367 8.263 24.8847 8.56733C25.6364 8.868 26.4997 8.82767 27.1608 8.36933L28.5529 7.40317C28.9623 7.1191 29.4623 6.9853 29.9639 7.02559C30.4655 7.06587 30.936 7.27764 31.2918 7.62317L32.7519 9.04217C33.4886 9.75533 33.583 10.8792 32.9786 11.7005L31.9831 13.0517C31.5109 13.6933 31.4693 14.5293 31.781 15.259C32.0927 15.9868 32.7349 16.5607 33.5377 16.689L35.2244 16.964C36.2501 17.129 37 17.9907 37 18.9972V21.0028C37 22.0112 36.2501 22.8728 35.2244 23.0378L33.5377 23.311C32.7349 23.4393 32.0927 24.0132 31.781 24.741C31.4693 25.4707 31.5109 26.3067 31.9831 26.9483L32.9786 28.3013C33.583 29.1208 33.4867 30.2447 32.7519 30.9597L31.2899 32.3768C30.9343 32.7219 30.4641 32.9334 29.9629 32.9736C29.4618 33.0139 28.9622 32.8804 28.5529 32.5968L27.1589 31.6307C26.4978 31.1723 25.6364 31.132 24.8866 31.4345C24.1367 31.737 23.5454 32.3603 23.4113 33.1377L23.1299 34.7767C22.9599 35.7703 22.0721 36.5 21.0332 36.5H18.9668C17.9279 36.5 17.042 35.7703 16.8701 34.7767L16.5906 33.1377C16.4564 32.3603 15.8652 31.737 15.1153 31.4327C14.3636 31.132 13.5022 31.1723 12.8411 31.6307L11.4471 32.5968C10.6028 33.1835 9.44489 33.09 8.70822 32.3768L7.24811 30.9578C6.89211 30.6125 6.67393 30.1558 6.63242 29.669C6.59091 29.1822 6.72877 28.6969 7.02144 28.2995L8.01689 26.9483C8.48911 26.3067 8.53256 25.4707 8.22089 24.741C7.90922 24.0132 7.267 23.4393 6.46422 23.311L4.77556 23.036C3.75178 22.871 3 22.0093 3 21.0028V18.9972C3 17.9888 3.75178 17.1272 4.77556 16.9622L6.46422 16.689C7.26511 16.5607 7.90922 15.9868 8.22089 15.259C8.53256 14.5293 8.491 13.6933 8.01878 13.0517L7.02333 11.6987C6.73066 11.3013 6.5928 10.816 6.63431 10.3291C6.67582 9.84233 6.894 9.38562 7.25 9.04033L8.71011 7.62317C9.06586 7.27764 9.53641 7.06587 10.038 7.02559C10.5395 6.9853 11.0396 7.1191 11.449 7.40317L12.8411 8.36933C13.5022 8.82767 14.3654 8.868 15.1153 8.5655C15.8652 8.263 16.4564 7.63967 16.5887 6.86233L16.872 5.22333Z" stroke="#B5B5B7" stroke-width="1.5" stroke-linecap="round" stroke-linejoin="round"/>
<path d="M26 19.5C26 20.9587 25.4205 22.3576 24.3891 23.3891C23.3576 24.4205 21.9587 25 20.5 25C19.0413 25 17.6424 24.4205 16.6109 23.3891C15.5795 22.3576 15 20.9587 15 19.5C15 18.0413 15.5795 16.6424 16.6109 15.6109C17.6424 14.5795 19.0413 14 20.5 14C21.9587 14 23.3576 14.5795 24.3891 15.6109C25.4205 16.6424 26 18.0413 26 19.5Z" stroke="#B5B5B7" stroke-width="2" stroke-linecap="round" stroke-linejoin="round"/>
</svg>
