<svg width="192" height="36" viewBox="0 0 192 36" fill="none" xmlns="http://www.w3.org/2000/svg">
<g clip-path="url(#clip0_17_1280)">
<path d="M90.2054 30.475H94.0108L99.3297 10.436V30.475H103.611V3.99023H97.7297L92.4108 23.4153L87.0919 3.99023H81.0811V30.475H84.7567V10.436L90.2054 30.475ZM121.513 17.3642C121.513 12.6723 119.222 10.9184 114.465 10.9184C111.481 10.9184 109.146 11.8392 107.762 12.6723V16.3995C108.93 15.4787 111.568 14.514 113.903 14.514C116.108 14.514 117.016 15.3471 117.016 17.3203V18.3727H116.324C109.492 18.3727 106.378 20.6967 106.378 24.5992C106.378 28.5018 108.67 30.6943 112.173 30.6943C114.811 30.6943 115.978 29.8611 116.8 28.9403H117.016C117.016 29.4226 117.232 30.1242 117.362 30.475H121.773C121.643 28.9403 121.557 27.3179 121.557 25.7832C121.513 25.7832 121.513 17.3642 121.513 17.3642ZM117.016 25.9147C116.454 26.7478 115.416 27.4494 113.773 27.4494C111.913 27.4494 111.005 26.2655 111.005 24.6431C111.005 22.4068 112.519 21.6175 116.454 21.6175H117.146V25.9586H117.016V25.9147ZM129.254 11.2692H125.103V36H129.6V28.2826C130.768 30.0365 132.368 30.8697 134.357 30.8697C138.768 30.8697 141.751 27.3617 141.751 20.9159C141.751 14.4701 138.854 10.9622 134.573 10.9622C132.497 10.9622 130.768 11.883 129.47 13.7686C129.513 13.7247 129.254 11.2692 129.254 11.2692ZM133.103 27.3179C130.811 27.3179 129.513 25.3447 129.513 21.0036C129.513 16.6626 130.768 14.5578 133.319 14.5578C135.87 14.5578 136.995 16.531 136.995 20.8721C136.995 25.2131 135.741 27.3179 133.103 27.3179ZM155.719 30.475H160.822L153.643 20.1705L160 11.2692H155.503L149.146 20.1705V11.2692H144.649V30.475H149.146V21.0913L155.719 30.475ZM175.827 29.2034V25.4762C174.443 26.3971 172.151 27.2302 169.946 27.2302C166.703 27.2302 165.449 25.6955 165.189 22.4068H175.913V19.9513C175.913 13.2862 173.016 10.8307 168.519 10.8307C163.07 10.8307 160.432 15.0402 160.432 20.9159C160.432 27.581 163.676 30.8697 169.341 30.8697C172.497 30.8258 174.573 30.1242 175.827 29.2034ZM168.562 14.5578C170.768 14.5578 171.459 16.4433 171.459 18.7673V19.1181H165.189C165.319 16.0925 166.486 14.5578 168.562 14.5578ZM192 14.9086V11.2692H176.995V14.9086H182.313V30.475H186.811V14.9086H192Z" fill="white"/>
<path d="M54.4 35.1669C64 35.1669 71.7405 27.3179 71.7405 17.5834C71.7405 7.84896 64 0 54.4 0C44.8 0 37.0594 7.84896 37.0594 17.5834C36.9729 27.3179 44.8432 35.1669 54.4 35.1669Z" fill="#FED42B"/>
<path d="M17.3405 35.1669C26.9175 35.1669 34.6811 27.2945 34.6811 17.5834C34.6811 7.87237 26.9175 0 17.3405 0C7.76362 0 0 7.87237 0 17.5834C0 27.2945 7.76362 35.1669 17.3405 35.1669Z" fill="#FC3F1D"/>
<path d="M19.8487 9.86605H18.1189C15.1351 9.86605 13.6216 11.4008 13.6216 13.7248C13.6216 16.3118 14.6595 17.5835 16.8649 19.1182L18.5946 20.3898L13.6216 28.2388H9.55676L14.3135 21.0914C11.546 19.1182 10.0324 17.2327 10.0324 13.944C10.0324 9.8222 12.8 7.01587 18.1189 7.01587H23.4378V28.1072H19.9784V9.8222H19.8487V9.86605Z" fill="white"/>
<mask id="mask0_17_1280" style="mask-type:luminance" maskUnits="userSpaceOnUse" x="37" y="0" width="35" height="36">
<path d="M54.4 35.1669C64 35.1669 71.7405 27.3179 71.7405 17.5834C71.7405 7.84896 64 0 54.4 0C44.8 0 37.0594 7.84896 37.0594 17.5834C36.9729 27.3179 44.8432 35.1669 54.4 35.1669Z" fill="white"/>
</mask>
<g mask="url(#mask0_17_1280)">
<path d="M45.8811 9.64682L30.6162 29.905L34.6811 34.5969L46.0108 19.3813L44.8432 27.7126L51.2 29.9489L58.9405 17.4081C58.5946 19.7321 58.0324 25.1255 63.0919 26.7918C71.0486 29.2473 78.0108 14.7333 81.2108 7.36667L76.5838 4.91113C72.9946 12.5409 67.4594 20.9599 65.254 20.3898C63.0486 19.8198 65.0378 12.6724 66.2919 8.06826V7.93671L59.2432 5.48117L50.8108 19.4251L51.9784 11.7954L45.8811 9.64682Z" fill="black"/>
</g>
</g>
<defs>
<clipPath id="clip0_17_1280">
<rect width="192" height="36" fill="white"/>
</clipPath>
</defs>
</svg>
