<svg width="183" height="21" viewBox="0 0 183 21" fill="none" xmlns="http://www.w3.org/2000/svg">
<g clip-path="url(#clip0_17_1295)">
<path d="M5.58779 20.6258L0 0.352539H3.67122L7.96373 15.9246L12.565 0.352539H15.9802L20.5927 16.0061L24.9041 0.356247H28.5602L22.9724 20.6221H18.7326L14.2669 5.48019L9.79745 20.6221H5.58779V20.6258Z" fill="#BE11A5"/>
<path d="M31.0868 0.363403H34.5773V20.6145H31.0868V0.363403Z" fill="#BE11A5"/>
<path d="M42.0326 17.437H50.5235V20.6145H38.6174V0.363403H42.0326V17.437Z" fill="#BE11A5"/>
<path d="M61.251 0.385649C63.9395 0.315204 66.53 1.37929 68.3713 3.30726C72.1856 7.36711 72.1856 13.633 68.3713 17.6929C66.53 19.6208 63.9395 20.6849 61.251 20.6145H53.05V0.363403H61.251V0.385649ZM61.251 17.4407C63.224 17.4407 64.8356 16.7882 66.0368 15.4794C67.3057 14.1298 67.9797 12.3427 67.9194 10.5038C67.9872 8.66478 67.3094 6.874 66.0368 5.52813C64.8055 4.22304 63.0584 3.50747 61.251 3.56679H56.4878V17.4407H61.251Z" fill="#BE11A5"/>
<path d="M89.6342 14.8306C89.6719 16.4063 89.0054 17.919 87.808 18.9646C86.5993 20.0657 85.0028 20.6627 83.3574 20.6256H74.4335V0.363391H82.7173C84.3138 0.337438 85.8576 0.91212 87.0361 1.9725C88.2034 2.97727 88.8548 4.44178 88.8171 5.96932C88.8736 7.6118 88.0754 9.17271 86.701 10.1033C88.5272 10.9857 89.6719 12.8284 89.6342 14.8306ZM77.8712 3.49263V8.8242H82.7436C84.2385 8.8242 85.4509 7.63034 85.4509 6.15841C85.4509 4.68648 84.2385 3.49263 82.7436 3.49263H77.8712ZM83.38 17.4926C84.9652 17.437 86.204 16.1245 86.1475 14.5636C86.0948 13.0806 84.8861 11.8941 83.38 11.8385H77.8712V17.5149H83.38V17.4926Z" fill="#BE11A5"/>
<path d="M96.2989 17.4444H105.539V20.6256H92.88V0.363403H105.389V3.54084H96.2989V8.79825H104.647V11.9534H96.2989V17.4444Z" fill="#BE11A5"/>
<path d="M120.495 20.6255L116.067 13.2399H112.027V20.6255H108.612V0.363335H116.959C118.74 0.318843 120.461 1.01588 121.696 2.28018C122.98 3.47403 123.699 5.14247 123.669 6.88134C123.647 9.49151 122.001 11.8199 119.527 12.7505L124.268 20.6255H120.495ZM112.027 3.49257V10.2701H116.922C118.823 10.1811 120.292 8.59427 120.201 6.72192C120.119 4.97192 118.695 3.57414 116.922 3.49257H112.027Z" fill="#BE11A5"/>
<path d="M138.749 20.6259L134.348 13.2366H130.308V20.6259H126.892V0.352593H135.24C137.021 0.308101 138.742 1.00514 139.977 2.26944C141.261 3.46329 141.98 5.13543 141.95 6.87431C141.927 9.48448 140.282 11.8129 137.808 12.7435L142.549 20.6259H138.749ZM130.308 3.48554V10.2668H135.202C137.104 10.1593 138.557 8.55386 138.448 6.68151C138.347 4.95747 136.953 3.58564 135.202 3.48554H130.308Z" fill="#BE11A5"/>
<path d="M145.053 0.355469H148.468V20.6251H145.053V0.355469Z" fill="#BE11A5"/>
<path d="M155.927 17.4444H165.164V20.6256H152.508V0.363403H165.017V3.54084H155.927V8.79825H164.271V11.9534H155.927V17.4444Z" fill="#BE11A5"/>
<path d="M167.543 16.0133L170.503 14.33C171.342 16.6213 173.052 17.741 175.673 17.741C178.293 17.741 179.547 16.6658 179.547 15.079C179.574 14.3226 179.174 13.6107 178.512 13.2251C177.838 12.7802 176.588 12.2908 174.807 11.7755C172.811 11.1934 171.824 10.8189 170.431 9.92165C169.038 9.0244 168.409 7.65629 168.409 5.84326C168.338 4.19707 169.072 2.61392 170.382 1.59061C171.715 0.515399 173.398 -0.0481598 175.119 0.00374695C178.229 -0.0889437 181.095 1.66476 182.386 4.4529L179.513 6.05089C178.647 4.19707 177.179 3.22568 175.134 3.22568C173.09 3.22568 171.862 4.20449 171.862 5.74686C171.862 7.28923 172.875 7.94178 176.072 8.90205C176.866 9.15788 177.442 9.34326 177.804 9.48415C178.165 9.62504 178.696 9.81042 179.344 10.07C179.886 10.2665 180.394 10.5408 180.85 10.8856C181.953 11.7273 183.132 13.1102 182.989 15.0456C183.056 16.74 182.296 18.3639 180.944 19.4132C179.596 20.4847 177.819 21 175.605 21C171.561 20.9889 168.624 19.1203 167.543 16.0133Z" fill="#BE11A5"/>
</g>
<defs>
<clipPath id="clip0_17_1295">
<rect width="183" height="21" fill="white"/>
</clipPath>
</defs>
</svg>
