<svg width="112" height="24" viewBox="0 0 112 24" fill="none" xmlns="http://www.w3.org/2000/svg">
<g clip-path="url(#clip0_17_1273)">
<path d="M13.066 18.3476C15.9665 17.9864 18.3096 15.6848 18.6796 12.8333C19.1453 9.32442 16.6272 6.1089 13.0551 5.651C12.4953 5.57941 11.9279 5.57941 11.368 5.651C8.46513 6.01453 6.12209 8.31611 5.75438 11.1653C5.28871 14.6742 7.80684 17.8897 11.3789 18.3476C11.9387 18.4192 12.5062 18.4192 13.066 18.3476ZM13.4616 0.0613632C19.2168 0.656401 23.7642 5.12383 24.3699 10.7767C25.1356 18.3657 18.6962 24.6913 10.9681 23.9391C5.21394 23.3431 0.667946 18.8762 0.062193 13.2238C-0.703517 5.63473 5.73593 -0.690801 13.4616 0.0613632ZM30.9253 0.536463H48.8074C49.4874 0.536463 49.8712 1.29979 49.4619 1.8316L37.0893 17.866H46.7833C48.5504 17.866 49.9408 19.4452 49.575 21.2447C49.3066 22.5649 48.0459 23.4645 46.6768 23.4645H27.2563C26.5833 23.4645 26.2014 22.7077 26.6065 22.1828L38.9885 6.13446H31.0313C29.6622 6.13446 28.4015 5.23261 28.1332 3.9147C27.7655 2.11517 29.1578 0.535999 30.9249 0.535999L30.9253 0.536463ZM108.531 0.600151C110.377 0.21849 112 1.5908 112 3.33593V22.656C112 23.331 111.207 23.7057 110.67 23.2878L95.2445 11.2657V20.6701C95.2445 22.4152 93.6208 23.7876 91.7751 23.4059C90.452 23.133 89.5452 21.922 89.5452 20.5953V1.34302C89.5452 0.668022 90.3384 0.293335 90.875 0.711256L106.303 12.7333V3.41031C106.303 2.08356 107.212 0.874426 108.533 0.599686H108.531V0.600151ZM68.3642 0C77.8083 0 85.4644 5.37114 85.4644 11.997C85.4644 18.6228 77.8083 23.994 68.3642 23.994C58.9201 23.994 51.264 18.6228 51.264 11.997C51.264 5.37114 58.9201 0 68.3642 0ZM68.3642 5.59847C61.8391 5.59847 56.9633 8.97716 56.9633 11.997C56.9633 15.0168 61.8391 18.3955 68.3642 18.3955C74.8893 18.3955 79.7651 15.0191 79.7651 11.997C79.7651 8.97484 74.8893 5.59847 68.3642 5.59847Z" fill="#005BFF"/>
</g>
<defs>
<clipPath id="clip0_17_1273">
<rect width="112" height="24" fill="white"/>
</clipPath>
</defs>
</svg>
